<svg width="43" height="43" viewBox="0 0 43 43" fill="none" xmlns="http://www.w3.org/2000/svg">
<path d="M34.0417 5.375H8.95833C6.9875 5.375 5.375 6.9875 5.375 8.95833V34.0417C5.375 36.0125 6.9875 37.625 8.95833 37.625H34.0417C36.0125 37.625 37.625 36.0125 37.625 34.0417V8.95833C37.625 6.9875 36.0125 5.375 34.0417 5.375ZM34.0417 34.0417H8.95833V8.95833H34.0417V34.0417Z" fill="#AAAEBA"/>
<path d="M11.1979 13.8317H20.1562V16.5192H11.1979V13.8317ZM23.2917 28.2188H32.25V30.9062H23.2917V28.2188ZM23.2917 23.7396H32.25V26.4271H23.2917V23.7396ZM14.3333 32.25H17.0208V28.6667H20.6042V25.9792H17.0208V22.3958H14.3333V25.9792H10.75V28.6667H14.3333V32.25ZM25.2446 19.6187L27.7708 17.0925L30.2971 19.6187L32.1962 17.7196L29.67 15.1754L32.1962 12.6492L30.2971 10.75L27.7708 13.2762L25.2446 10.75L23.3454 12.6492L25.8717 15.1754L23.3454 17.7196L25.2446 19.6187Z" fill="#AAAEBA"/>
</svg>
