<svg width="41" height="41" viewBox="0 0 41 41" fill="none" xmlns="http://www.w3.org/2000/svg">
<path d="M15.125 6.16666C7.20585 6.16666 0.791687 12.5808 0.791687 20.5C0.791687 28.4192 7.20585 34.8333 15.125 34.8333C23.0442 34.8333 29.4584 28.4192 29.4584 20.5C29.4584 12.5808 23.0442 6.16666 15.125 6.16666ZM15.125 31.25C9.1946 31.25 4.37502 26.4304 4.37502 20.5C4.37502 14.5696 9.1946 9.74999 15.125 9.74999C21.0554 9.74999 25.875 14.5696 25.875 20.5C25.875 26.4304 21.0554 31.25 15.125 31.25ZM20.5 17.8125H16.9167V26.7708H13.3334V17.8125H9.75002V15.125H20.5V17.8125ZM35.2813 5.71874L40.2084 7.95832L35.2813 10.1979L33.0417 15.125L30.8021 10.1979L25.875 7.95832L30.8021 5.71874L33.0417 0.791656L35.2813 5.71874ZM35.2813 30.8021L40.2084 33.0417L35.2813 35.2812L33.0417 40.2083L30.8021 35.2812L25.875 33.0417L30.8021 30.8021L33.0417 25.875L35.2813 30.8021Z" fill="#AAAEBA"/>
</svg>
