<svg width="43" height="43" viewBox="0 0 43 43" fill="none" xmlns="http://www.w3.org/2000/svg">
<path d="M28.2188 37.625C29.703 37.625 30.9062 36.4218 30.9062 34.9375C30.9062 33.4532 29.703 32.25 28.2188 32.25C26.7345 32.25 25.5312 33.4532 25.5312 34.9375C25.5312 36.4218 26.7345 37.625 28.2188 37.625Z" fill="#AAAEBA"/>
<path d="M28.2188 10.75C29.703 10.75 30.9062 9.54677 30.9062 8.0625C30.9062 6.57823 29.703 5.375 28.2188 5.375C26.7345 5.375 25.5312 6.57823 25.5312 8.0625C25.5312 9.54677 26.7345 10.75 28.2188 10.75Z" fill="#AAAEBA"/>
<path d="M5.375 24.1875C6.85927 24.1875 8.0625 22.9843 8.0625 21.5C8.0625 20.0157 6.85927 18.8125 5.375 18.8125C3.89073 18.8125 2.6875 20.0157 2.6875 21.5C2.6875 22.9843 3.89073 24.1875 5.375 24.1875Z" fill="#AAAEBA"/>
<path d="M37.625 16.125C36.4366 16.1285 35.283 16.5262 34.3448 17.2557C33.4067 17.9852 32.737 19.0054 32.4408 20.1563H26.6842C26.4939 19.3984 26.1393 18.6918 25.6455 18.0862C25.1517 17.4807 24.5308 16.9912 23.8267 16.6523C23.1227 16.3135 22.3528 16.1335 21.5715 16.1253C20.7902 16.1171 20.0167 16.2808 19.3057 16.6047L15.0366 11.27C15.7388 10.3478 16.1209 9.22164 16.125 8.0625C16.125 6.99943 15.8098 5.96023 15.2192 5.07631C14.6285 4.1924 13.7891 3.50347 12.8069 3.09665C11.8248 2.68983 10.744 2.58339 9.70139 2.79078C8.65874 2.99818 7.70101 3.5101 6.9493 4.2618C6.1976 5.01351 5.68568 5.97124 5.47828 7.01389C5.27089 8.05654 5.37733 9.13727 5.78415 10.1194C6.19097 11.1016 6.8799 11.941 7.76381 12.5317C8.64773 13.1223 9.68693 13.4375 10.75 13.4375C11.5077 13.4357 12.2563 13.2722 12.9457 12.9578L17.2134 18.2925C16.508 19.2129 16.1257 20.3403 16.1257 21.5C16.1257 22.6597 16.508 23.7871 17.2134 24.7075L12.9457 30.0422C12.2563 29.7278 11.5077 29.5643 10.75 29.5625C9.68693 29.5625 8.64773 29.8777 7.76381 30.4684C6.8799 31.059 6.19097 31.8984 5.78415 32.8806C5.37733 33.8627 5.27089 34.9435 5.47828 35.9861C5.68568 37.0288 6.1976 37.9865 6.9493 38.7382C7.70101 39.4899 8.65874 40.0018 9.70139 40.2092C10.744 40.4166 11.8248 40.3102 12.8069 39.9034C13.7891 39.4965 14.6285 38.8076 15.2192 37.9237C15.8098 37.0398 16.125 36.0006 16.125 34.9375C16.121 33.7783 15.7389 32.6521 15.0366 31.73L19.3043 26.3953C20.0154 26.7195 20.7891 26.8834 21.5705 26.8753C22.352 26.8671 23.1221 26.6873 23.8263 26.3484C24.5305 26.0095 25.1515 25.5199 25.6454 24.9142C26.1393 24.3086 26.4939 23.6017 26.6842 22.8438H32.4408C32.6939 23.8147 33.2141 24.6952 33.9424 25.3854C34.6707 26.0755 35.578 26.5476 36.5611 26.748C37.5443 26.9485 38.5639 26.8692 39.5043 26.5193C40.4447 26.1694 41.2681 25.5628 41.881 24.7684C42.494 23.974 42.8719 23.0236 42.9719 22.0253C43.0718 21.0269 42.8899 20.0205 42.4467 19.1203C42.0034 18.2202 41.3167 17.4623 40.4644 16.9329C39.6121 16.4034 38.6284 16.1235 37.625 16.125ZM8.0625 8.0625C8.0625 7.53097 8.22012 7.01136 8.51543 6.56941C8.81073 6.12745 9.23046 5.78299 9.72154 5.57958C10.2126 5.37617 10.753 5.32294 11.2743 5.42664C11.7956 5.53034 12.2745 5.7863 12.6504 6.16215C13.0262 6.53801 13.2822 7.01687 13.3859 7.5382C13.4896 8.05952 13.4363 8.59989 13.2329 9.09096C13.0295 9.58204 12.6851 10.0018 12.2431 10.2971C11.8011 10.5924 11.2815 10.75 10.75 10.75C10.0375 10.7493 9.35429 10.4659 8.85044 9.96207C8.34659 9.45822 8.06321 8.77505 8.0625 8.0625ZM10.75 37.625C10.2185 37.625 9.69886 37.4674 9.25691 37.1721C8.81495 36.8768 8.47049 36.457 8.26708 35.966C8.06367 35.4749 8.01044 34.9345 8.11414 34.4132C8.21784 33.8919 8.4738 33.413 8.84965 33.0372C9.22551 32.6613 9.70437 32.4053 10.2257 32.3016C10.747 32.1979 11.2874 32.2512 11.7785 32.4546C12.2695 32.658 12.6893 33.0024 12.9846 33.4444C13.2799 33.8864 13.4375 34.406 13.4375 34.9375C13.4368 35.6501 13.1534 36.3332 12.6496 36.8371C12.1457 37.3409 11.4626 37.6243 10.75 37.625ZM21.5 24.1875C20.9685 24.1875 20.4489 24.0299 20.0069 23.7346C19.565 23.4393 19.2205 23.0195 19.0171 22.5285C18.8137 22.0374 18.7604 21.497 18.8641 20.9757C18.9678 20.4544 19.2238 19.9755 19.5997 19.5997C19.9755 19.2238 20.4544 18.9678 20.9757 18.8641C21.497 18.7604 22.0374 18.8137 22.5285 19.0171C23.0195 19.2205 23.4393 19.565 23.7346 20.0069C24.0299 20.4489 24.1875 20.9685 24.1875 21.5C24.1868 22.2126 23.9034 22.8957 23.3996 23.3996C22.8957 23.9034 22.2126 24.1868 21.5 24.1875ZM37.625 24.1875C37.0935 24.1875 36.5739 24.0299 36.1319 23.7346C35.6899 23.4393 35.3455 23.0195 35.1421 22.5285C34.9387 22.0374 34.8854 21.497 34.9891 20.9757C35.0928 20.4544 35.3488 19.9755 35.7247 19.5997C36.1005 19.2238 36.5794 18.9678 37.1007 18.8641C37.622 18.7604 38.1624 18.8137 38.6535 19.0171C39.1445 19.2205 39.5643 19.565 39.8596 20.0069C40.1549 20.4489 40.3125 20.9685 40.3125 21.5C40.3118 22.2126 40.0284 22.8957 39.5246 23.3996C39.0207 23.9034 38.3376 24.1868 37.625 24.1875Z" fill="#AAAEBA"/>
</svg>
