<svg width="31" height="37" viewBox="0 0 31 37" fill="none" xmlns="http://www.w3.org/2000/svg">
<path d="M1.95835 18.5C1.48317 18.5 1.02746 18.6888 0.691454 19.0248C0.355452 19.3608 0.166687 19.8165 0.166687 20.2917V34.625C0.166687 35.1002 0.355452 35.5559 0.691454 35.8919C1.02746 36.2279 1.48317 36.4167 1.95835 36.4167C2.43353 36.4167 2.88925 36.2279 3.22525 35.8919C3.56125 35.5559 3.75002 35.1002 3.75002 34.625V20.2917C3.75002 19.8165 3.56125 19.3608 3.22525 19.0248C2.88925 18.6888 2.43353 18.5 1.95835 18.5ZM10.9167 0.583344C10.4415 0.583344 9.98579 0.772108 9.64978 1.10811C9.31378 1.44411 9.12502 1.89983 9.12502 2.37501V34.625C9.12502 35.1002 9.31378 35.5559 9.64978 35.8919C9.98579 36.2279 10.4415 36.4167 10.9167 36.4167C11.3919 36.4167 11.8476 36.2279 12.1836 35.8919C12.5196 35.5559 12.7083 35.1002 12.7083 34.625V2.37501C12.7083 1.89983 12.5196 1.44411 12.1836 1.10811C11.8476 0.772108 11.3919 0.583344 10.9167 0.583344ZM28.8333 25.6667C28.3582 25.6667 27.9024 25.8554 27.5664 26.1914C27.2304 26.5274 27.0417 26.9832 27.0417 27.4583V34.625C27.0417 35.1002 27.2304 35.5559 27.5664 35.8919C27.9024 36.2279 28.3582 36.4167 28.8333 36.4167C29.3085 36.4167 29.7642 36.2279 30.1002 35.8919C30.4362 35.5559 30.625 35.1002 30.625 34.625V27.4583C30.625 26.9832 30.4362 26.5274 30.1002 26.1914C29.7642 25.8554 29.3085 25.6667 28.8333 25.6667ZM19.875 11.3333C19.3998 11.3333 18.9441 11.5221 18.6081 11.8581C18.2721 12.1941 18.0833 12.6498 18.0833 13.125V34.625C18.0833 35.1002 18.2721 35.5559 18.6081 35.8919C18.9441 36.2279 19.3998 36.4167 19.875 36.4167C20.3502 36.4167 20.8059 36.2279 21.1419 35.8919C21.4779 35.5559 21.6667 35.1002 21.6667 34.625V13.125C21.6667 12.6498 21.4779 12.1941 21.1419 11.8581C20.8059 11.5221 20.3502 11.3333 19.875 11.3333Z" fill="#AAAEBA"/>
</svg>
